<mxfile host="app.diagrams.net" modified="2022-06-22T01:35:00.897Z" agent="5.0 (Windows NT 10.0; Win64; x64) AppleWebKit/537.36 (KHTML, like Gecko) Chrome/102.0.0.0 Safari/537.36" etag="zSv7tWBAOfjOiVEZDMbE" version="16.1.2" type="github">
  <diagram name="Page-1" id="edf60f1a-56cd-e834-aa8a-f176f3a09ee4">
    <mxGraphModel dx="1730" dy="898" grid="1" gridSize="10" guides="1" tooltips="1" connect="1" arrows="1" fold="1" page="1" pageScale="1" pageWidth="1100" pageHeight="850" background="none" math="0" shadow="0">
      <root>
        <mxCell id="0" />
        <mxCell id="1" parent="0" />
        <mxCell id="U47O0pNOqAtr7t-W0nwR-9" value="" style="edgeStyle=none;rounded=0;orthogonalLoop=1;jettySize=auto;html=1;fontSize=40;fontColor=#000000;elbow=vertical;curved=1;" edge="1" parent="1" source="U47O0pNOqAtr7t-W0nwR-6">
          <mxGeometry relative="1" as="geometry">
            <mxPoint x="550" y="260" as="targetPoint" />
          </mxGeometry>
        </mxCell>
        <mxCell id="U47O0pNOqAtr7t-W0nwR-6" value="&lt;font color=&quot;#ffffff&quot; style=&quot;font-size: 24px&quot;&gt;Semi Project&lt;/font&gt;" style="rounded=0;whiteSpace=wrap;html=1;fontSize=18;fillColor=#000000;strokeColor=#b85450;" vertex="1" parent="1">
          <mxGeometry x="440" y="140" width="220" height="80" as="geometry" />
        </mxCell>
        <mxCell id="U47O0pNOqAtr7t-W0nwR-7" value="&lt;font color=&quot;#000000&quot; size=&quot;1&quot;&gt;&lt;b style=&quot;font-size: 40px&quot;&gt;Menu Structure&lt;/b&gt;&lt;/font&gt;" style="text;html=1;strokeColor=none;fillColor=none;align=center;verticalAlign=middle;whiteSpace=wrap;rounded=0;fontSize=18;fontColor=#FFFFFF;" vertex="1" parent="1">
          <mxGeometry x="70" y="60" width="330" height="80" as="geometry" />
        </mxCell>
        <mxCell id="U47O0pNOqAtr7t-W0nwR-20" style="edgeStyle=none;curved=1;rounded=0;orthogonalLoop=1;jettySize=auto;html=1;fontSize=20;fontColor=#000000;elbow=vertical;" edge="1" parent="1">
          <mxGeometry relative="1" as="geometry">
            <mxPoint x="750" y="340" as="targetPoint" />
            <mxPoint x="750" y="260" as="sourcePoint" />
          </mxGeometry>
        </mxCell>
        <mxCell id="U47O0pNOqAtr7t-W0nwR-19" value="" style="endArrow=none;html=1;rounded=0;fontSize=20;fontColor=#000000;curved=1;elbow=vertical;" edge="1" parent="1">
          <mxGeometry width="50" height="50" relative="1" as="geometry">
            <mxPoint x="350" y="259.17" as="sourcePoint" />
            <mxPoint x="750" y="259.34" as="targetPoint" />
          </mxGeometry>
        </mxCell>
        <mxCell id="U47O0pNOqAtr7t-W0nwR-21" value="회원 가입" style="rounded=0;whiteSpace=wrap;html=1;fontSize=24;fontColor=#FFFFFF;fillColor=#000000;" vertex="1" parent="1">
          <mxGeometry x="240" y="340" width="240" height="30" as="geometry" />
        </mxCell>
        <mxCell id="U47O0pNOqAtr7t-W0nwR-22" style="edgeStyle=none;curved=1;rounded=0;orthogonalLoop=1;jettySize=auto;html=1;fontSize=20;fontColor=#000000;elbow=vertical;" edge="1" parent="1">
          <mxGeometry relative="1" as="geometry">
            <mxPoint x="350" y="340" as="targetPoint" />
            <mxPoint x="350" y="260" as="sourcePoint" />
          </mxGeometry>
        </mxCell>
        <mxCell id="U47O0pNOqAtr7t-W0nwR-25" style="edgeStyle=none;curved=1;rounded=0;orthogonalLoop=1;jettySize=auto;html=1;exitX=0.5;exitY=1;exitDx=0;exitDy=0;fontSize=24;fontColor=#000000;elbow=vertical;" edge="1" parent="1" source="U47O0pNOqAtr7t-W0nwR-21" target="U47O0pNOqAtr7t-W0nwR-21">
          <mxGeometry relative="1" as="geometry" />
        </mxCell>
        <mxCell id="U47O0pNOqAtr7t-W0nwR-26" value="약관 동의" style="rounded=0;whiteSpace=wrap;html=1;fontSize=24;fontColor=#000000;fillColor=#FFFFFF;" vertex="1" parent="1">
          <mxGeometry x="240" y="380" width="240" height="30" as="geometry" />
        </mxCell>
        <mxCell id="U47O0pNOqAtr7t-W0nwR-27" value="회원가입" style="rounded=0;whiteSpace=wrap;html=1;fontSize=24;fontColor=#000000;fillColor=#FFFFFF;" vertex="1" parent="1">
          <mxGeometry x="240" y="425" width="240" height="30" as="geometry" />
        </mxCell>
        <mxCell id="U47O0pNOqAtr7t-W0nwR-28" value="로그인" style="rounded=0;whiteSpace=wrap;html=1;fontSize=24;fontColor=#FFFFFF;fillColor=#000000;" vertex="1" parent="1">
          <mxGeometry x="630" y="340" width="240" height="30" as="geometry" />
        </mxCell>
        <mxCell id="U47O0pNOqAtr7t-W0nwR-29" value="로그인" style="rounded=0;whiteSpace=wrap;html=1;fontSize=24;fontColor=#000000;fillColor=#FFFFFF;" vertex="1" parent="1">
          <mxGeometry x="630" y="380" width="240" height="30" as="geometry" />
        </mxCell>
        <mxCell id="U47O0pNOqAtr7t-W0nwR-30" value="아이디 찾기" style="rounded=0;whiteSpace=wrap;html=1;fontSize=24;fontColor=#000000;fillColor=#FFFFFF;" vertex="1" parent="1">
          <mxGeometry x="630" y="425" width="240" height="30" as="geometry" />
        </mxCell>
        <mxCell id="U47O0pNOqAtr7t-W0nwR-31" value="패스워드 찾기" style="rounded=0;whiteSpace=wrap;html=1;fontSize=24;fontColor=#000000;fillColor=#FFFFFF;" vertex="1" parent="1">
          <mxGeometry x="630" y="470" width="240" height="30" as="geometry" />
        </mxCell>
        <mxCell id="U47O0pNOqAtr7t-W0nwR-32" value="" style="endArrow=none;html=1;rounded=0;fontSize=20;fontColor=#000000;curved=1;elbow=vertical;" edge="1" parent="1">
          <mxGeometry width="50" height="50" relative="1" as="geometry">
            <mxPoint x="150" y="560" as="sourcePoint" />
            <mxPoint x="550" y="560.1699999999998" as="targetPoint" />
          </mxGeometry>
        </mxCell>
        <mxCell id="U47O0pNOqAtr7t-W0nwR-33" style="edgeStyle=none;curved=1;rounded=0;orthogonalLoop=1;jettySize=auto;html=1;fontSize=20;fontColor=#000000;elbow=vertical;" edge="1" parent="1">
          <mxGeometry relative="1" as="geometry">
            <mxPoint x="149.17" y="640" as="targetPoint" />
            <mxPoint x="149.17" y="560" as="sourcePoint" />
          </mxGeometry>
        </mxCell>
        <mxCell id="U47O0pNOqAtr7t-W0nwR-34" value="" style="endArrow=none;html=1;rounded=0;fontSize=20;fontColor=#000000;curved=1;elbow=vertical;" edge="1" parent="1">
          <mxGeometry width="50" height="50" relative="1" as="geometry">
            <mxPoint x="550" y="560" as="sourcePoint" />
            <mxPoint x="950" y="560.1699999999998" as="targetPoint" />
          </mxGeometry>
        </mxCell>
        <mxCell id="U47O0pNOqAtr7t-W0nwR-35" style="edgeStyle=none;curved=1;rounded=0;orthogonalLoop=1;jettySize=auto;html=1;fontSize=20;fontColor=#000000;elbow=vertical;" edge="1" parent="1">
          <mxGeometry relative="1" as="geometry">
            <mxPoint x="950" y="640" as="targetPoint" />
            <mxPoint x="950" y="560" as="sourcePoint" />
          </mxGeometry>
        </mxCell>
        <mxCell id="U47O0pNOqAtr7t-W0nwR-36" value="상품조회" style="rounded=0;whiteSpace=wrap;html=1;fontSize=24;fontColor=#FFFFFF;fillColor=#000000;" vertex="1" parent="1">
          <mxGeometry x="30" y="640" width="240" height="30" as="geometry" />
        </mxCell>
        <mxCell id="U47O0pNOqAtr7t-W0nwR-37" value="리스트" style="rounded=0;whiteSpace=wrap;html=1;fontSize=24;fontColor=#000000;fillColor=#FFFFFF;" vertex="1" parent="1">
          <mxGeometry x="30" y="680" width="240" height="30" as="geometry" />
        </mxCell>
        <mxCell id="U47O0pNOqAtr7t-W0nwR-38" value="조회" style="rounded=0;whiteSpace=wrap;html=1;fontSize=24;fontColor=#000000;fillColor=#FFFFFF;" vertex="1" parent="1">
          <mxGeometry x="30" y="720" width="240" height="30" as="geometry" />
        </mxCell>
        <mxCell id="U47O0pNOqAtr7t-W0nwR-39" value="리뷰 작성" style="rounded=0;whiteSpace=wrap;html=1;fontSize=24;fontColor=#000000;fillColor=#FFFFFF;" vertex="1" parent="1">
          <mxGeometry x="30" y="760" width="240" height="30" as="geometry" />
        </mxCell>
        <mxCell id="U47O0pNOqAtr7t-W0nwR-40" value="리뷰 수정 및 삭제" style="rounded=0;whiteSpace=wrap;html=1;fontSize=24;fontColor=#000000;fillColor=#FFFFFF;" vertex="1" parent="1">
          <mxGeometry x="30" y="800" width="240" height="30" as="geometry" />
        </mxCell>
        <mxCell id="U47O0pNOqAtr7t-W0nwR-41" style="edgeStyle=none;curved=1;rounded=0;orthogonalLoop=1;jettySize=auto;html=1;fontSize=20;fontColor=#000000;elbow=vertical;" edge="1" parent="1">
          <mxGeometry relative="1" as="geometry">
            <mxPoint x="400.0000000000001" y="641" as="targetPoint" />
            <mxPoint x="400.0000000000001" y="561" as="sourcePoint" />
          </mxGeometry>
        </mxCell>
        <mxCell id="U47O0pNOqAtr7t-W0nwR-42" value="상품 등록" style="rounded=0;whiteSpace=wrap;html=1;fontSize=24;fontColor=#FFFFFF;fillColor=#000000;" vertex="1" parent="1">
          <mxGeometry x="290" y="640" width="240" height="30" as="geometry" />
        </mxCell>
        <mxCell id="U47O0pNOqAtr7t-W0nwR-43" value="회원 목록" style="rounded=0;whiteSpace=wrap;html=1;fontSize=24;fontColor=#FFFFFF;fillColor=#000000;" vertex="1" parent="1">
          <mxGeometry x="830" y="640" width="240" height="30" as="geometry" />
        </mxCell>
        <mxCell id="U47O0pNOqAtr7t-W0nwR-44" value="상품 목록" style="rounded=0;whiteSpace=wrap;html=1;fontSize=24;fontColor=#FFFFFF;fillColor=#000000;" vertex="1" parent="1">
          <mxGeometry x="560" y="640" width="240" height="30" as="geometry" />
        </mxCell>
        <mxCell id="U47O0pNOqAtr7t-W0nwR-45" style="edgeStyle=none;curved=1;rounded=0;orthogonalLoop=1;jettySize=auto;html=1;fontSize=20;fontColor=#000000;elbow=vertical;" edge="1" parent="1">
          <mxGeometry relative="1" as="geometry">
            <mxPoint x="679.1700000000001" y="640" as="targetPoint" />
            <mxPoint x="679.1700000000001" y="560" as="sourcePoint" />
          </mxGeometry>
        </mxCell>
        <mxCell id="U47O0pNOqAtr7t-W0nwR-47" value="등록" style="rounded=0;whiteSpace=wrap;html=1;fontSize=24;fontColor=#000000;fillColor=#FFFFFF;" vertex="1" parent="1">
          <mxGeometry x="290" y="680" width="240" height="30" as="geometry" />
        </mxCell>
        <mxCell id="U47O0pNOqAtr7t-W0nwR-48" value="리스트" style="rounded=0;whiteSpace=wrap;html=1;fontSize=24;fontColor=#000000;fillColor=#FFFFFF;" vertex="1" parent="1">
          <mxGeometry x="560" y="680" width="240" height="30" as="geometry" />
        </mxCell>
        <mxCell id="U47O0pNOqAtr7t-W0nwR-49" value="조회" style="rounded=0;whiteSpace=wrap;html=1;fontSize=24;fontColor=#000000;fillColor=#FFFFFF;" vertex="1" parent="1">
          <mxGeometry x="560" y="720" width="240" height="30" as="geometry" />
        </mxCell>
        <mxCell id="U47O0pNOqAtr7t-W0nwR-50" value="리스트" style="rounded=0;whiteSpace=wrap;html=1;fontSize=24;fontColor=#000000;fillColor=#FFFFFF;" vertex="1" parent="1">
          <mxGeometry x="830" y="680" width="240" height="30" as="geometry" />
        </mxCell>
        <mxCell id="U47O0pNOqAtr7t-W0nwR-51" value="조회" style="rounded=0;whiteSpace=wrap;html=1;fontSize=24;fontColor=#000000;fillColor=#FFFFFF;" vertex="1" parent="1">
          <mxGeometry x="830" y="720" width="240" height="30" as="geometry" />
        </mxCell>
      </root>
    </mxGraphModel>
  </diagram>
</mxfile>
